<svg width="18" height="18" viewBox="0 0 18 18" fill="none" xmlns="http://www.w3.org/2000/svg">
<path d="M0.483077 0.474257C0.0814071 0.877367 0.0105242 1.25676 0.0105242 3.31974V5.69098H0.95563H1.90074V3.79399V1.897H8.51647H15.1322V8.53647V15.1759H8.51647H1.90074V13.2789V11.382H0.95563H0.0105242V13.7532C0.0105242 17.3338 -0.65105 17.0729 8.51647 17.0729C15.9828 17.0729 16.0537 17.0729 16.5499 16.5513C16.9988 16.0533 17.0224 15.745 17.0224 8.51276C17.0224 1.06707 17.0224 0.972216 16.5026 0.474257C16.0064 0.0237198 15.6993 7.62939e-06 8.46922 7.62939e-06C1.26279 7.62939e-06 0.932002 0.0237198 0.483077 0.474257Z" fill="#434343"/>
<path d="M7.21681 4.50531L6.53161 5.21669L7.68936 6.40231L8.84711 7.58792H4.42875H0.010376V8.53642V9.48492H4.42875H8.84711L7.68936 10.6705L6.53161 11.8562L7.28769 12.615L8.04377 13.3975L10.4538 10.9551L12.8874 8.53642L10.5247 6.16518C9.22516 4.861 8.11466 3.79394 8.04377 3.79394C7.94926 3.79394 7.59485 4.12592 7.21681 4.50531Z" fill="#434343"/>
</svg>
